<?xml version="1.0" encoding="UTF-8"?>
<svg id="Ebene_1" xmlns="http://www.w3.org/2000/svg" xmlns:xlink="http://www.w3.org/1999/xlink" version="1.1" viewBox="0 0 192.7 32">
  <!-- Generator: Adobe Illustrator 30.2.1, SVG Export Plug-In . SVG Version: 2.1.1 Build 1)  -->
  <defs>
    <style>
      .st0 {
        fill: url(#Unbenannter_Verlauf_3);
      }

      .st1 {
        opacity: .2;
      }

      .st1, .st2 {
        isolation: isolate;
      }

      .st1, .st2, .st3 {
        fill: #0967ad;
      }

      .st2 {
        opacity: .4;
      }

      .st4 {
        fill: #fff;
      }

      .st5 {
        fill: #e62e27;
      }
    </style>
    <linearGradient id="Unbenannter_Verlauf_3" data-name="Unbenannter Verlauf 3" x1="25.7" y1="20.8" x2="35.1" y2="20.8" gradientTransform="translate(0 34) scale(1 -1)" gradientUnits="userSpaceOnUse">
      <stop offset="0" stop-color="#ee7159"/>
      <stop offset=".8" stop-color="#e62e27"/>
    </linearGradient>
  </defs>
  <g id="g">
    <g id="h">
      <path id="i" class="st2" d="M32,26.1s0,0,0,0c1.5-.2,5.4-3.1,6.7-6.4,1.9-3.6,2.3-10.2,2.4-10.6s.4-.7.7-.9c.3-.2.7-.3,1.2-.3h2.9s0,0,0,0c-.2-.8-.8-1.5-1.6-1.9l-11.2-4.7c-.3-.1-.8-.2-1.1-.2h0c-.3,0-.8,0-1.1.2l-11.2,4.7c-.8.3-1.4,1.1-1.6,1.9h0s2.9,0,2.9,0c.5,0,.9.1,1.2.3.3.2.6.5.7.9.1.4.5,7.1,2.4,10.6,1.3,3.4,5.1,6.3,6.6,6.4h0Z"/>
      <path id="j" class="st1" d="M38.6,19.7c1.9-3.6,2.3-10.2,2.4-10.6s.4-.7.7-.9c.3-.2.7-.3,1.2-.3h2.9s0,0,0,0c-.2-.8-.8-1.5-1.6-1.9l-11.2-4.7c-.3-.1-.8-.2-1.1-.2v25.1s0,0,0,0c1.5-.2,5.4-3.1,6.7-6.4Z"/>
      <path id="k" class="st3" d="M32,26.1c1.5-.2,5.4-3.1,6.7-6.4,1.9-3.6,2.3-10.2,2.4-10.6s.4-.7.7-.9c.3-.2.7-.3,1.2-.3h2.9c.1.4.2.8.1,2h0c-.1,2.9-.6,6.5-3,11.2-3,5.5-6.6,8.1-8.4,9-.9.5-1.9.9-2.6.9h0c-.7,0-1.7-.4-2.6-.9-1.8-1-5.5-3.5-8.4-9-2.3-4.7-2.8-8.3-3-11.2,0-1.3,0-1.7.1-2h2.9c.5,0,.9.1,1.2.3.3.2.6.5.7.9.1.4.5,7.1,2.4,10.6,1.3,3.4,5.1,6.3,6.6,6.4h0s0,0,0,0Z"/>
    </g>
    <g id="l">
      <path class="st3" d="M60.7,21.3v7.8h-4.8v-7.8l-7.5-12.8h4.2c.4,0,.7,0,1,.3.2.2.4.4.6.7l2.9,6c.2.5.5.9.6,1.3.2.4.4.8.5,1.2.1-.4.3-.8.5-1.2s.4-.8.6-1.3l2.9-6c0-.1.1-.2.2-.4.1-.1.2-.2.3-.3s.3-.2.4-.2.3,0,.5,0h4.2l-7.5,12.8h0Z"/>
      <path class="st3" d="M5.2,22.3v6.9H.4V8.5h7.3c1.4,0,2.7.2,3.7.5,1,.3,1.9.8,2.6,1.4.7.6,1.2,1.3,1.5,2.1.3.8.5,1.7.5,2.7s-.2,2-.5,2.8c-.3.9-.8,1.6-1.5,2.2-.7.6-1.5,1.1-2.6,1.4s-2.3.5-3.7.5h-2.5s0,0,0,0ZM5.2,18.7h2.5c1.2,0,2.1-.3,2.7-.9.5-.6.8-1.4.8-2.5s0-.9-.2-1.3c-.1-.4-.4-.7-.6-1-.3-.3-.6-.5-1.1-.6s-1-.2-1.6-.2h-2.5v6.5h0Z"/>
    </g>
    <g id="n">
      <g>
        <path class="st5" d="M77.8,29.2c-.3,0-.5,0-.7-.2-.2-.1-.3-.3-.4-.6l-.3-1.1c-.3.3-.6.6-.9.9-.3.3-.7.5-1,.7-.4.2-.8.3-1.2.4-.4,0-.9.1-1.4.1-.8,0-1.5-.2-2.1-.5-.7-.3-1.2-.8-1.7-1.5-.5-.6-.8-1.4-1.1-2.4-.3-.9-.4-2-.4-3.2s.2-2.1.5-3.1c.3-.9.7-1.8,1.3-2.4.6-.7,1.2-1.2,2-1.6.8-.4,1.6-.6,2.6-.6s1.4.1,1.9.3c.5.2,1,.5,1.4.9v-7.4h4.4v21.2h-2.7ZM73.3,26c.3,0,.6,0,.9,0,.3,0,.5-.1.7-.3.2-.1.4-.3.6-.4.2-.2.4-.4.6-.6v-6.2c-.3-.4-.7-.6-1.1-.8-.4-.1-.8-.2-1.2-.2s-.8,0-1.1.2c-.3.2-.6.4-.9.8-.3.4-.4.8-.6,1.4s-.2,1.3-.2,2.1,0,1.4.2,2c.1.5.3,1,.5,1.3.2.3.4.6.7.7.3.1.6.2,1,.2Z"/>
        <path class="st5" d="M94,29.2c-.4,0-.7,0-.9-.2-.2-.1-.4-.3-.5-.7l-.3-.8c-.4.3-.7.6-1.1.8-.3.2-.7.4-1.1.6-.4.2-.8.3-1.2.4-.4,0-.9.1-1.4.1s-1.3,0-1.8-.3c-.5-.2-1-.4-1.4-.8-.4-.3-.7-.8-.9-1.3-.2-.5-.3-1.1-.3-1.8s.1-1.1.4-1.6c.3-.6.7-1.1,1.4-1.5.7-.5,1.5-.8,2.6-1.1,1.1-.3,2.5-.5,4.2-.5v-.6c0-.9-.2-1.5-.5-1.9-.4-.4-.9-.6-1.5-.6s-.9,0-1.3.2c-.3.1-.6.2-.9.4-.3.1-.5.3-.8.4-.2.1-.5.2-.9.2s-.6,0-.8-.2c-.2-.1-.4-.3-.5-.5l-.8-1.4c.9-.8,1.9-1.4,3-1.8,1.1-.4,2.2-.6,3.5-.6s1.7.1,2.4.4c.7.3,1.3.7,1.8,1.2.5.5.9,1.1,1.1,1.8.3.7.4,1.5.4,2.3v9.2h-2ZM89,26.5c.6,0,1.1,0,1.5-.3.4-.2.9-.5,1.3-1v-2c-.9,0-1.6,0-2.2.2s-1,.3-1.3.4c-.3.2-.6.4-.7.6-.1.2-.2.5-.2.7,0,.5.1.9.4,1.1.3.2.7.3,1.2.3Z"/>
        <path class="st5" d="M104.3,29.4c-.7,0-1.3-.1-1.9-.3-.5-.2-1-.5-1.3-.9-.4-.4-.6-.8-.8-1.4-.2-.5-.3-1.1-.3-1.8v-7.6h-1.2c-.2,0-.4,0-.6-.2-.2-.1-.2-.4-.2-.6v-1.7l2.3-.5.9-3.6c.1-.5.4-.7,1-.7h2.3v4.3h3.6v3h-3.6v7.3c0,.3,0,.6.2.8.2.2.4.3.7.3s.3,0,.4,0c.1,0,.2,0,.3-.1,0,0,.2,0,.2-.1,0,0,.2,0,.2,0s.2,0,.3,0c0,0,.2.2.2.3l1.3,2.1c-.6.4-1.2.7-1.9,1-.7.2-1.4.3-2.2.3Z"/>
        <path class="st5" d="M120.7,29.2c-.4,0-.7,0-.9-.2-.2-.1-.4-.3-.5-.7l-.3-.8c-.4.3-.7.6-1.1.8-.3.2-.7.4-1.1.6-.4.2-.8.3-1.2.4-.4,0-.9.1-1.4.1s-1.3,0-1.8-.3c-.5-.2-1-.4-1.4-.8-.4-.3-.7-.8-.9-1.3-.2-.5-.3-1.1-.3-1.8s.1-1.1.4-1.6c.3-.6.7-1.1,1.4-1.5.7-.5,1.5-.8,2.6-1.1,1.1-.3,2.5-.5,4.2-.5v-.6c0-.9-.2-1.5-.5-1.9-.4-.4-.9-.6-1.5-.6s-.9,0-1.3.2c-.3.1-.6.2-.9.4-.3.1-.5.3-.8.4-.2.1-.5.2-.9.2s-.6,0-.8-.2c-.2-.1-.4-.3-.5-.5l-.8-1.4c.9-.8,1.9-1.4,3-1.8,1.1-.4,2.2-.6,3.5-.6s1.7.1,2.4.4c.7.3,1.3.7,1.8,1.2.5.5.9,1.1,1.1,1.8.3.7.4,1.5.4,2.3v9.2h-2ZM115.6,26.5c.6,0,1.1,0,1.5-.3.4-.2.9-.5,1.3-1v-2c-.9,0-1.6,0-2.2.2-.6.1-1,.3-1.3.4-.3.2-.6.4-.7.6-.1.2-.2.5-.2.7,0,.5.1.9.4,1.1.3.2.7.3,1.2.3Z"/>
        <path class="st5" d="M125.8,29.2v-14.7h2.6c.2,0,.4,0,.5,0,.1,0,.3,0,.4.2,0,0,.2.2.2.3,0,.1,0,.3.1.5l.2,1.4c.5-.8,1.1-1.5,1.8-2,.7-.5,1.4-.7,2.2-.7s1.2.2,1.6.5l-.6,3.2c0,.2-.1.3-.2.4-.1,0-.3.1-.5.1s-.3,0-.6,0c-.2,0-.5,0-.8,0-1.2,0-2.1.6-2.7,1.8v9h-4.4Z"/>
        <path class="st5" d="M144.1,14.2c1.1,0,2.1.2,3,.5.9.3,1.7.9,2.4,1.5.7.7,1.2,1.4,1.5,2.4.4.9.5,2,.5,3.1s-.2,2.2-.5,3.2c-.4.9-.9,1.7-1.5,2.4-.7.7-1.4,1.2-2.4,1.5-.9.4-1.9.5-3,.5s-2.1-.2-3.1-.5-1.7-.9-2.4-1.5c-.7-.7-1.2-1.5-1.5-2.4-.4-.9-.5-2-.5-3.2s.2-2.2.5-3.1c.4-.9.9-1.7,1.5-2.4.7-.7,1.5-1.2,2.4-1.5.9-.3,1.9-.5,3.1-.5h0ZM144.1,26.1c1,0,1.8-.4,2.2-1.1.5-.7.7-1.8.7-3.3s-.2-2.5-.7-3.2c-.5-.7-1.2-1.1-2.2-1.1s-1.8.4-2.3,1.1c-.5.7-.7,1.8-.7,3.2s.2,2.5.7,3.3c.5.7,1.2,1.1,2.3,1.1Z"/>
        <path class="st5" d="M160.5,14.2c1.1,0,2.1.2,3,.5.9.3,1.7.9,2.4,1.5.7.7,1.2,1.4,1.5,2.4.4.9.5,2,.5,3.1s-.2,2.2-.5,3.2c-.4.9-.9,1.7-1.5,2.4-.7.7-1.4,1.2-2.4,1.5-.9.4-1.9.5-3,.5s-2.1-.2-3.1-.5-1.7-.9-2.4-1.5c-.7-.7-1.2-1.5-1.5-2.4-.4-.9-.5-2-.5-3.2s.2-2.2.5-3.1c.4-.9.9-1.7,1.5-2.4.7-.7,1.5-1.2,2.4-1.5.9-.3,1.9-.5,3.1-.5h0ZM160.5,26.1c1,0,1.8-.4,2.2-1.1.5-.7.7-1.8.7-3.3s-.2-2.5-.7-3.2c-.5-.7-1.2-1.1-2.2-1.1s-1.8.4-2.3,1.1c-.5.7-.7,1.8-.7,3.2s.2,2.5.7,3.3c.5.7,1.2,1.1,2.3,1.1Z"/>
        <path class="st5" d="M170.4,29.2v-14.7h2.7c.3,0,.5,0,.7.2.2.1.3.3.4.6l.2.8c.2-.3.5-.5.8-.7.3-.2.6-.4.9-.6.3-.2.6-.3,1-.4.4,0,.7-.1,1.2-.1.9,0,1.6.2,2.2.7.6.5,1,1.1,1.3,1.8.2-.5.5-.8.9-1.2.4-.3.7-.6,1.1-.8.4-.2.8-.3,1.3-.4.5,0,.9-.1,1.4-.1.8,0,1.6.1,2.2.4.7.3,1.2.6,1.6,1.1.4.5.8,1.1,1,1.8.2.7.3,1.5.3,2.4v9.3h-4.4v-9.3c0-1.5-.7-2.3-2-2.3s-1.1.2-1.5.6c-.4.4-.6,1-.6,1.7v9.3h-4.4v-9.3c0-.8-.2-1.4-.5-1.8-.3-.3-.8-.5-1.5-.5s-.8,0-1.1.3c-.4.2-.7.4-1,.7v10.6h-4.4Z"/>
      </g>
    </g>
  </g>
  <g id="o">
    <path class="st4" d="M31.2,14.9c0-1.4-1.2-2.5-2.6-2.6.5-1.2,1.4-3.1,2.2-4.2,2-3,5-3.1,6.8-2.8.3,0,.5.3.6.6.3,1.8.2,4.8-2.8,6.8-1.1.7-3,1.6-4.2,2.2h0ZM35.2,7.4c-.5,0-1,.4-1,1s.4,1,1,1,1-.4,1-1-.4-1-1-1Z"/>
    <path class="st0" d="M26.3,12.4c-.2,0-.4-.1-.5-.3-.1-.2-.1-.4,0-.6l1.3-2.1c.3-.5.9-.9,1.5-.9h2c-.7,1.1-1.5,2.8-2,3.9h-2.4ZM35.1,15c0,.6-.3,1.2-.8,1.5l-2.1,1.3c-.2.1-.4.1-.6,0-.2-.1-.3-.3-.3-.5v-2.4c1.1-.5,2.8-1.2,3.9-1.9v2ZM29.8,16.9c-1.2,1.2-4.1,1-4.1,1,0,0-.2-2.9,1-4.1.9-.9,2.2-.9,3.1,0s.9,2.2,0,3.1h0ZM28.7,14.9c-.3-.3-.7-.3-1,0-.4.4-.3,1.4-.3,1.4,0,0,1,0,1.4-.3.3-.3.3-.7,0-1h0Z"/>
  </g>
</svg>