<?xml version="1.0" encoding="UTF-8"?>
<svg id="Ebene_1" xmlns="http://www.w3.org/2000/svg" xmlns:xlink="http://www.w3.org/1999/xlink" version="1.1" viewBox="0 0 40 40">
  <!-- Generator: Adobe Illustrator 30.2.1, SVG Export Plug-In . SVG Version: 2.1.1 Build 1)  -->
  <defs>
    <style>
      .st0 {
        fill: url(#Unbenannter_Verlauf_3);
      }

      .st1 {
        opacity: .2;
      }

      .st1, .st2 {
        isolation: isolate;
      }

      .st1, .st2, .st3 {
        fill: #0967ad;
      }

      .st2 {
        opacity: .4;
      }

      .st4 {
        fill: #fff;
      }
    </style>
    <linearGradient id="Unbenannter_Verlauf_3" data-name="Unbenannter Verlauf 3" x1="12.1" y1="25.7" x2="23.6" y2="25.7" gradientTransform="translate(0 42) scale(1 -1)" gradientUnits="userSpaceOnUse">
      <stop offset="0" stop-color="#ee7159"/>
      <stop offset=".8" stop-color="#e62e27"/>
    </linearGradient>
  </defs>
  <rect class="st4" width="40" height="40"/>
  <g id="m">
    <g id="g">
      <g id="i">
        <path id="j" class="st2" d="M19.8,32s0,0,0,0c1.8-.2,6.5-3.7,8.1-7.8,2.3-4.3,2.8-12.4,3-12.9s.4-.8.8-1.1c.4-.3.9-.4,1.5-.4h3.5s0,0,0,0c-.3-1-1-1.9-2-2.3L21.1,1.9c-.3-.1-.9-.3-1.3-.3h0c-.4,0-1,.1-1.3.3L5,7.5c-1,.4-1.7,1.3-2,2.3h0s3.5,0,3.5,0c.6,0,1.1.1,1.5.4.4.3.7.6.8,1.1.1.4.6,8.6,3,12.9,1.5,4.1,6.2,7.6,8.1,7.8h0,0Z"/>
        <path id="k" class="st1" d="M27.9,24.2c2.3-4.3,2.8-12.4,3-12.9s.4-.8.8-1.1c.4-.3.9-.4,1.5-.4h3.5s0,0,0,0c-.3-1-1-1.9-2-2.3L21.1,1.9c-.3-.1-.9-.3-1.3-.3v30.4s0,0,0,0c1.8-.2,6.5-3.7,8.1-7.8Z"/>
        <path id="l" class="st3" d="M19.8,32c1.8-.2,6.5-3.7,8.1-7.8,2.3-4.3,2.8-12.4,3-12.9s.4-.8.8-1.1c.4-.3.9-.4,1.5-.4h3.5c.1.4.2.9.1,2.5h0c-.2,3.5-.8,7.8-3.6,13.6-3.6,6.7-8,9.8-10.2,10.9-1.1.6-2.3,1.1-3.1,1.1h0c-.9,0-2-.5-3.1-1.1-2.2-1.2-6.6-4.3-10.2-10.9-2.8-5.8-3.5-10.1-3.6-13.6,0-1.5,0-2,.1-2.5h3.5c.6,0,1.1.1,1.5.4.4.3.7.6.8,1.1.1.4.6,8.6,3,12.9,1.5,4.1,6.2,7.6,8.1,7.8h0s0,0,0,0Z"/>
      </g>
    </g>
    <path class="st4" d="M18.9,18.4c-.1-1.7-1.5-3-3.2-3.1.6-1.4,1.8-3.8,2.7-5.1,2.5-3.6,6.1-3.7,8.3-3.3.4,0,.6.3.7.7.4,2.2.3,5.8-3.3,8.3-1.3.9-3.7,2-5.1,2.6h0ZM23.7,9.3c-.7,0-1.2.5-1.2,1.2s.5,1.2,1.2,1.2,1.2-.5,1.2-1.2-.5-1.2-1.2-1.2Z"/>
    <path class="st0" d="M12.8,15.3c-.2,0-.5-.1-.6-.4-.1-.2-.1-.5,0-.7l1.6-2.6c.4-.6,1.1-1,1.8-1h2.4c-.9,1.4-1.8,3.4-2.4,4.7h-2.9ZM23.6,18.5c0,.8-.4,1.5-1,1.8l-2.6,1.6c-.2.1-.5.1-.7,0-.2-.1-.4-.4-.4-.6v-2.9c1.3-.6,3.4-1.5,4.7-2.4v2.4h0ZM17.1,20.8c-1.5,1.5-5,1.2-5,1.2,0,0-.2-3.5,1.2-5,1-1,2.7-1,3.7,0s1,2.7,0,3.7h0ZM15.7,18.4c-.3-.3-.9-.3-1.2,0-.5.5-.4,1.7-.4,1.7,0,0,1.2,0,1.7-.4s.3-.9,0-1.2h0Z"/>
  </g>
</svg>