<?xml version="1.0" encoding="UTF-8"?>
<svg id="Ebene_1" xmlns="http://www.w3.org/2000/svg" xmlns:xlink="http://www.w3.org/1999/xlink" version="1.1" viewBox="0 0 199.4 32">
  <!-- Generator: Adobe Illustrator 30.2.1, SVG Export Plug-In . SVG Version: 2.1.1 Build 1)  -->
  <defs>
    <style>
      .st0 {
        fill: url(#Unbenannter_Verlauf_5);
      }

      .st1, .st2, .st3 {
        fill: #fff;
      }

      .st4 {
        fill: #e62e27;
      }

      .st2 {
        opacity: .2;
      }

      .st2, .st3 {
        isolation: isolate;
      }

      .st3 {
        opacity: .4;
      }
    </style>
    <linearGradient id="Unbenannter_Verlauf_5" data-name="Unbenannter Verlauf 5" x1="26.4" y1="20.3" x2="36.1" y2="20.3" gradientTransform="translate(0 34) scale(1 -1)" gradientUnits="userSpaceOnUse">
      <stop offset="0" stop-color="#ee7159"/>
      <stop offset=".8" stop-color="#e62e27"/>
    </linearGradient>
  </defs>
  <g id="d">
    <g id="e">
      <path id="f" class="st3" d="M32.9,26.6s0,0,0,0c1.6-.2,5.6-3.2,6.9-6.7,2-3.7,2.4-10.6,2.5-11s.4-.7.7-.9c.3-.2.7-.3,1.3-.3h3s0,0,0,0c-.2-.8-.8-1.6-1.7-1.9L34.1.8c-.3-.1-.8-.2-1.1-.2h0c-.3,0-.8,0-1.1.2l-11.6,4.8c-.9.4-1.5,1.1-1.7,1.9h0s3,0,3,0c.5,0,.9.1,1.3.3.3.2.6.5.7.9.1.4.5,7.3,2.5,11,1.3,3.5,5.3,6.5,6.9,6.7h0Z"/>
      <path id="g" class="st2" d="M39.8,19.9c2-3.7,2.4-10.6,2.5-11s.4-.7.7-.9c.3-.2.7-.3,1.3-.3h3s0,0,0,0c-.2-.8-.8-1.6-1.7-1.9L34,.8c-.3-.1-.8-.2-1.1-.2v26s0,0,0,0c1.6-.2,5.6-3.2,6.9-6.7Z"/>
      <path id="h" class="st1" d="M32.9,26.6c1.6-.2,5.6-3.2,6.9-6.7,2-3.7,2.4-10.6,2.5-11s.4-.7.7-.9c.3-.2.7-.3,1.3-.3h3c.1.4.2.8.1,2.1h0c-.1,3-.7,6.7-3.1,11.6-3.1,5.7-6.8,8.4-8.7,9.4-.9.5-2,.9-2.7.9h0c-.7,0-1.7-.4-2.7-.9-1.9-1-5.7-3.6-8.7-9.4-2.4-4.9-3-8.6-3.1-11.6,0-1.3,0-1.7.1-2.1h3c.5,0,.9.1,1.3.3.3.2.6.5.7.9.1.4.5,7.3,2.5,11,1.3,3.5,5.3,6.5,6.9,6.7h0s0,0,0,0Z"/>
    </g>
    <g id="j">
      <path class="st1" d="M62.7,21.5v8.1h-5v-8.1l-7.7-13.2h4.4c.4,0,.8,0,1,.3.3.2.5.5.6.8l3,6.2c.2.5.5,1,.7,1.4.2.4.4.8.5,1.3.1-.4.3-.8.5-1.3s.4-.9.7-1.4l3-6.2c0-.1.1-.3.2-.4.1-.1.2-.2.3-.3s.3-.2.5-.3.4,0,.6,0h4.4l-7.7,13.2h0Z"/>
      <path class="st1" d="M5.2,22.6v7.1H.2V8.3h7.5c1.5,0,2.8.2,3.9.5,1.1.4,2,.9,2.7,1.5.7.6,1.2,1.4,1.6,2.2.3.9.5,1.8.5,2.8s-.2,2-.5,2.9c-.3.9-.9,1.7-1.6,2.3-.7.6-1.6,1.1-2.7,1.5s-2.4.5-3.8.5h-2.6ZM5.2,18.8h2.6c1.3,0,2.2-.3,2.8-.9.6-.6.9-1.5.9-2.6s0-.9-.2-1.3c-.1-.4-.4-.7-.7-1-.3-.3-.7-.5-1.1-.7s-1-.2-1.6-.2h-2.6v6.8h0Z"/>
    </g>
    <g id="k">
      <g>
        <path class="st4" d="M80.3,29.7c-.3,0-.5,0-.7-.2-.2-.1-.3-.3-.4-.6l-.4-1.2c-.3.3-.6.6-1,.9-.3.3-.7.5-1.1.7-.4.2-.8.3-1.3.4-.4.1-.9.2-1.4.2-.8,0-1.5-.2-2.2-.5-.7-.4-1.3-.9-1.8-1.5-.5-.7-.9-1.5-1.2-2.4-.3-1-.4-2.1-.4-3.3s.2-2.2.5-3.2c.3-1,.8-1.8,1.3-2.5.6-.7,1.3-1.3,2.1-1.7.8-.4,1.7-.6,2.7-.6s1.4.1,2,.3c.5.2,1,.5,1.5.9v-7.7h4.6v22h-2.8ZM75.6,26.4c.3,0,.6,0,.9,0,.3,0,.5-.2.7-.3.2-.1.4-.3.6-.4.2-.2.4-.4.6-.6v-6.5c-.4-.4-.7-.6-1.1-.8-.4-.2-.8-.2-1.3-.2s-.8,0-1.2.2c-.4.2-.7.4-.9.8-.3.4-.5.8-.6,1.4-.1.6-.2,1.3-.2,2.1s0,1.5.2,2c.1.5.3,1,.5,1.3.2.3.5.6.8.7.3.1.6.2,1,.2Z"/>
        <path class="st4" d="M97.1,29.7c-.4,0-.8,0-1-.2-.2-.1-.4-.4-.6-.7l-.3-.8c-.4.3-.8.6-1.1.9-.4.2-.7.5-1.1.6-.4.2-.8.3-1.2.4-.4,0-.9.1-1.4.1s-1.3,0-1.9-.3c-.6-.2-1.1-.4-1.4-.8-.4-.4-.7-.8-.9-1.3-.2-.5-.3-1.1-.3-1.8s.1-1.1.4-1.7c.3-.6.8-1.1,1.4-1.6.7-.5,1.6-.9,2.7-1.2,1.1-.3,2.6-.5,4.3-.5v-.7c0-.9-.2-1.6-.6-2-.4-.4-.9-.6-1.6-.6s-1,0-1.3.2c-.3.1-.6.2-.9.4-.3.1-.5.3-.8.4-.3.1-.6.2-.9.2s-.6,0-.8-.2c-.2-.2-.4-.3-.5-.6l-.8-1.4c.9-.8,1.9-1.4,3.1-1.8,1.1-.4,2.3-.6,3.6-.6s1.8.1,2.5.4c.7.3,1.4.7,1.9,1.3.5.5.9,1.2,1.2,1.9.3.7.4,1.5.4,2.4v9.5h-2.1ZM91.9,26.9c.6,0,1.1-.1,1.5-.3.4-.2.9-.5,1.3-1v-2.1c-.9,0-1.7,0-2.3.2-.6.1-1.1.3-1.4.4-.3.2-.6.4-.7.6-.1.2-.2.5-.2.7,0,.5.1.9.4,1.1.3.2.7.3,1.3.3Z"/>
        <path class="st4" d="M107.8,29.9c-.7,0-1.4-.1-1.9-.3-.6-.2-1-.5-1.4-.9-.4-.4-.7-.9-.9-1.4-.2-.5-.3-1.2-.3-1.8v-7.9h-1.3c-.2,0-.4,0-.6-.2-.2-.2-.3-.4-.3-.7v-1.8l2.4-.5.9-3.7c.1-.5.5-.7,1-.7h2.4v4.5h3.7v3.1h-3.7v7.6c0,.4,0,.6.3.9.2.2.4.3.7.3s.3,0,.4,0c.1,0,.2,0,.3-.1,0,0,.2,0,.2-.1,0,0,.2,0,.3,0s.2,0,.3,0c0,0,.2.2.3.3l1.4,2.2c-.6.4-1.3.8-2,1-.7.2-1.5.3-2.3.3Z"/>
        <path class="st4" d="M124.8,29.7c-.4,0-.8,0-1-.2-.2-.1-.4-.4-.6-.7l-.3-.8c-.4.3-.8.6-1.1.9-.4.2-.7.5-1.1.6-.4.2-.8.3-1.2.4-.4,0-.9.1-1.4.1s-1.3,0-1.9-.3c-.6-.2-1.1-.4-1.4-.8-.4-.4-.7-.8-.9-1.3-.2-.5-.3-1.1-.3-1.8s.1-1.1.4-1.7c.3-.6.8-1.1,1.4-1.6.7-.5,1.6-.9,2.7-1.2,1.1-.3,2.6-.5,4.3-.5v-.7c0-.9-.2-1.6-.6-2s-.9-.6-1.6-.6-1,0-1.3.2c-.3.1-.6.2-.9.4-.3.1-.5.3-.8.4-.3.1-.6.2-.9.2s-.6,0-.8-.2c-.2-.2-.4-.3-.5-.6l-.8-1.4c.9-.8,1.9-1.4,3.1-1.8,1.1-.4,2.3-.6,3.6-.6s1.8.1,2.5.4c.7.3,1.4.7,1.9,1.3.5.5.9,1.2,1.2,1.9.3.7.4,1.5.4,2.4v9.5h-2.1ZM119.5,26.9c.6,0,1.1-.1,1.5-.3.4-.2.9-.5,1.3-1v-2.1c-.9,0-1.7,0-2.3.2s-1.1.3-1.4.4c-.3.2-.6.4-.7.6-.1.2-.2.5-.2.7,0,.5.1.9.4,1.1.3.2.7.3,1.3.3Z"/>
        <path class="st4" d="M130.1,29.7v-15.3h2.7c.2,0,.4,0,.6,0,.2,0,.3.1.4.2.1,0,.2.2.2.3,0,.1.1.3.1.5l.3,1.4c.6-.9,1.2-1.5,1.9-2,.7-.5,1.5-.8,2.3-.8s1.3.2,1.7.5l-.6,3.4c0,.2-.1.4-.2.4-.1,0-.3.1-.5.1s-.4,0-.6,0c-.2,0-.5,0-.9,0-1.2,0-2.1.6-2.8,1.9v9.4h-4.6Z"/>
        <path class="st4" d="M149,14.2c1.2,0,2.2.2,3.2.5,1,.4,1.8.9,2.4,1.6.7.7,1.2,1.5,1.6,2.5.4,1,.6,2.1.6,3.3s-.2,2.3-.6,3.3c-.4,1-.9,1.8-1.6,2.5-.7.7-1.5,1.2-2.4,1.6-1,.4-2,.6-3.2.6s-2.2-.2-3.2-.6-1.8-.9-2.5-1.6c-.7-.7-1.2-1.5-1.6-2.5-.4-1-.6-2.1-.6-3.3s.2-2.3.6-3.3c.4-1,.9-1.8,1.6-2.5.7-.7,1.5-1.2,2.5-1.6,1-.4,2-.5,3.2-.5ZM149,26.6c1,0,1.8-.4,2.3-1.1.5-.7.7-1.9.7-3.4s-.2-2.6-.7-3.4c-.5-.7-1.3-1.1-2.3-1.1s-1.9.4-2.4,1.1c-.5.7-.8,1.9-.8,3.4s.2,2.6.8,3.4c.5.7,1.3,1.1,2.4,1.1Z"/>
        <path class="st4" d="M166.1,14.2c1.2,0,2.2.2,3.2.5,1,.4,1.8.9,2.4,1.6.7.7,1.2,1.5,1.6,2.5.4,1,.6,2.1.6,3.3s-.2,2.3-.6,3.3c-.4,1-.9,1.8-1.6,2.5-.7.7-1.5,1.2-2.4,1.6-1,.4-2,.6-3.2.6s-2.2-.2-3.2-.6-1.8-.9-2.5-1.6c-.7-.7-1.2-1.5-1.6-2.5-.4-1-.6-2.1-.6-3.3s.2-2.3.6-3.3c.4-1,.9-1.8,1.6-2.5.7-.7,1.5-1.2,2.5-1.6,1-.4,2-.5,3.2-.5ZM166.1,26.6c1,0,1.8-.4,2.3-1.1.5-.7.7-1.9.7-3.4s-.2-2.6-.7-3.4c-.5-.7-1.3-1.1-2.3-1.1s-1.9.4-2.4,1.1c-.5.7-.8,1.9-.8,3.4s.2,2.6.8,3.4c.5.7,1.3,1.1,2.4,1.1Z"/>
        <path class="st4" d="M176.4,29.7v-15.3h2.8c.3,0,.5,0,.7.2.2.1.3.3.4.6l.2.8c.3-.3.5-.5.8-.7.3-.2.6-.4.9-.6.3-.2.7-.3,1-.4.4,0,.8-.1,1.2-.1.9,0,1.7.2,2.3.7.6.5,1.1,1.1,1.4,1.9.3-.5.6-.9.9-1.2.4-.3.8-.6,1.2-.8s.9-.4,1.4-.5c.5,0,.9-.1,1.4-.1.9,0,1.6.1,2.3.4.7.3,1.2.6,1.7,1.1.5.5.8,1.1,1,1.8s.4,1.5.4,2.4v9.7h-4.6v-9.7c0-1.6-.7-2.4-2-2.4s-1.1.2-1.5.6c-.4.4-.6,1-.6,1.8v9.7h-4.6v-9.7c0-.9-.2-1.5-.5-1.8-.3-.4-.8-.5-1.5-.5s-.8,0-1.2.3c-.4.2-.7.4-1,.8v11h-4.6Z"/>
      </g>
    </g>
  </g>
  <g id="o">
    <path class="st1" d="M32.1,15.6c-.1-1.5-1.3-2.6-2.7-2.7.5-1.2,1.5-3.2,2.3-4.4,2.1-3.1,5.2-3.2,7.1-2.9.3,0,.5.3.6.6.3,1.9.2,5-2.9,7.1-1.1.8-3.2,1.7-4.4,2.2h0ZM36.2,7.8c-.6,0-1,.5-1,1s.5,1,1,1,1-.5,1-1-.5-1-1-1Z"/>
    <path class="st0" d="M27,12.9c-.2,0-.4-.1-.5-.3-.1-.2-.1-.5,0-.6l1.4-2.2c.3-.6.9-.9,1.6-.9h2.1c-.7,1.2-1.6,2.9-2.1,4.1h-2.4ZM36.1,15.6c0,.6-.3,1.2-.9,1.6l-2.2,1.4c-.2.1-.4.1-.6,0-.2-.1-.3-.3-.3-.5v-2.5c1.1-.5,2.9-1.3,4.1-2v2.1ZM30.6,17.6c-1.3,1.3-4.3,1.1-4.3,1.1,0,0-.2-3,1.1-4.3.9-.9,2.3-.9,3.2,0s.9,2.3,0,3.2h0ZM29.4,15.6c-.3-.3-.8-.3-1.1,0-.4.4-.4,1.4-.4,1.4,0,0,1,0,1.4-.4.3-.3.3-.8,0-1.1h0Z"/>
  </g>
</svg>